<svg width="100" height="100" viewBox="0 0 100 100" fill="none" xmlns="http://www.w3.org/2000/svg">
<g clip-path="url(#clip0_46_2)">
<path d="M38.5928 50.0875C38.5928 46.9219 39.8809 44.0472 41.9663 41.9623C44.0442 39.885 46.9127 38.5987 50.0841 38.5987C53.25 38.5987 56.1177 39.8881 58.1971 41.9704C60.2752 44.0514 61.5597 46.9229 61.5597 50.0874C61.5597 53.2547 60.2754 56.1281 58.1976 58.2102C56.1184 60.2941 53.2505 61.5841 50.0841 61.5841C46.9121 61.5841 44.0408 60.2945 41.9588 58.2114C39.878 56.1294 38.5927 53.2557 38.5927 50.0874L38.5928 50.0875ZM44.4713 44.4813C43.0398 45.9125 42.1555 47.8954 42.1555 50.0875C42.1555 52.2828 43.0422 54.2701 44.4777 55.7064C45.9068 57.1362 47.8874 58.0213 50.0841 58.0213C52.2743 58.0213 54.2514 57.1358 55.6787 55.7053C57.1113 54.2695 57.9969 52.2827 57.9969 50.0875C57.9969 47.8955 57.1112 45.9104 55.6782 44.4755C54.2511 43.0464 52.2742 42.1615 50.0841 42.1615C47.8874 42.1615 45.9044 43.0487 44.4713 44.4813Z" fill="#E51E51"/>
<path d="M61.8914 74.1018C64.6452 77.7349 68.234 78.5695 71.3811 77.7123C72.7815 77.331 74.1029 76.6255 75.2373 75.6885C76.3793 74.7452 77.326 73.5777 77.9688 72.279C79.4214 69.3444 79.3124 65.6712 76.3407 62.3592L73.771 59.4952L77.6211 59.4018C82.0481 59.2945 84.8276 56.8248 85.9873 53.7256C86.4945 52.3701 86.7026 50.8879 86.6136 49.4187C86.5251 47.9586 86.1423 46.5268 85.4674 45.2625C83.9281 42.3791 80.7916 40.3328 76.0581 40.8095L70.7245 41.3467L74.6873 37.7269C78.3213 34.4075 78.9413 30.6703 77.8411 27.5936C77.3094 26.1065 76.3887 24.7599 75.2188 23.6737C74.0463 22.5851 72.6279 21.7615 71.1039 21.3233C67.9423 20.4144 64.2863 21.2115 61.4249 24.8361L57.92 29.2756L58.2588 23.6322C58.5362 19.0096 56.3393 15.9718 53.3733 14.5434C52.1908 13.9739 50.8854 13.6493 49.5616 13.5726C48.2294 13.4953 46.8842 13.6673 45.6316 14.091C42.4804 15.1569 39.9026 17.8715 39.6432 22.2798L39.4224 26.0318L36.665 23.4836C33.4162 20.4811 29.6934 20.314 26.6975 21.7287C25.353 22.3637 24.1453 23.3107 23.1794 24.4612C22.2123 25.613 21.4942 26.9532 21.1302 28.3725C20.3169 31.5444 21.2813 35.2141 25.2146 38.1852L30.3819 42.0885L23.9482 41.3721C19.3885 40.8644 16.3099 42.8897 14.7672 45.7623C14.0639 47.072 13.6641 48.5588 13.5743 50.07C13.4842 51.588 13.7051 53.1183 14.2433 54.5075C15.4267 57.5616 18.2077 59.9595 22.6655 59.9999L26.8017 60.0374L23.9319 63.006C20.9278 66.1135 20.6266 69.7267 21.8767 72.7101C22.3949 73.9466 23.173 75.0818 24.1327 76.0373C25.0966 76.9972 26.2359 77.7723 27.4715 78.2841C30.4616 79.5227 34.0764 79.2066 37.1731 76.1885L40.193 73.2451V77.4619C40.193 81.8133 42.5341 84.5488 45.5439 85.7307C47.0161 86.3089 48.6525 86.5325 50.2679 86.4075C51.8755 86.2832 53.4458 85.8144 54.7944 85.0071C57.5839 83.3374 59.4518 80.139 58.7184 75.4448L57.6303 68.4799L61.8914 74.1018ZM72.3136 81.1498C69.0505 82.0386 65.475 81.6715 62.307 79.4404C61.7644 83.4174 59.5456 86.3023 56.6175 88.055C54.7804 89.1546 52.6705 89.791 50.5324 89.9564C48.4022 90.1212 46.2266 89.8193 44.2496 89.0429C40.8116 87.6928 37.987 84.9555 37.0037 80.7976C33.3892 82.9779 29.4855 82.962 26.1216 81.5685C24.4449 80.874 22.9119 79.8351 21.6277 78.5563C20.339 77.2731 19.2922 75.744 18.5923 74.074C17.182 70.7084 17.1551 66.7949 19.34 63.1642C15.0699 62.1563 12.2824 59.2751 10.9312 55.7879C10.2053 53.9143 9.90612 51.8709 10.0255 49.8612C10.1453 47.8446 10.685 45.849 11.6359 44.0784C13.2592 41.0556 16.0394 38.6916 19.9293 37.9654C17.3349 34.6188 16.8252 30.8791 17.6928 27.4956C18.1953 25.5358 19.1616 23.7153 20.4517 22.1788C21.7429 20.6408 23.366 19.3709 25.1806 18.5139C28.6347 16.8826 32.7513 16.7248 36.5923 19.0039C37.7837 14.7009 40.8657 11.9492 44.4905 10.7231C46.1768 10.1528 47.979 9.92068 49.7565 10.0238C51.5427 10.1274 53.3102 10.5681 54.9182 11.3425C58.1212 12.8851 60.6892 15.7125 61.5386 19.7934C64.8832 17.3182 68.6716 16.9205 72.078 17.8998C74.1439 18.4938 76.0611 19.6049 77.6403 21.0712C79.2222 22.54 80.4701 24.3692 81.1951 26.3967C82.4049 29.7798 82.193 33.6786 79.7109 37.35C83.9455 37.9912 86.9158 40.4403 88.5988 43.5925C89.522 45.3218 90.044 47.2562 90.1625 49.2099C90.2804 51.1545 89.998 53.1344 89.3134 54.9641C87.9807 58.5257 85.1615 61.4954 80.8452 62.547C83.0591 66.4128 82.8314 70.4664 81.1558 73.8516C80.2842 75.6124 79.0195 77.1797 77.5058 78.4301C75.9845 79.6867 74.2054 80.6345 72.3136 81.1498Z" fill="#E51E51"/>
</g>
<defs>
<clipPath id="clip0_46_2">
<rect width="100" height="100" fill="white"/>
</clipPath>
</defs>
</svg>
